<?xml version="1.0" encoding="UTF-8" standalone="no"?>
<!-- Created with Inkscape (http://www.inkscape.org/) -->

<svg
   version="1.1"
   id="svg2"
   width="860"
   height="728"
   viewBox="0 0 860 728"
   sodipodi:docname="147-1470238_logo-de-hulk-png-transparent-png.svg"
   inkscape:version="1.1 (c68e22c387, 2021-05-23)"
   xmlns:inkscape="http://www.inkscape.org/namespaces/inkscape"
   xmlns:sodipodi="http://sodipodi.sourceforge.net/DTD/sodipodi-0.dtd"
   xmlns="http://www.w3.org/2000/svg"
   xmlns:svg="http://www.w3.org/2000/svg">
  <defs
     id="defs6" />
  <sodipodi:namedview
     id="namedview4"
     pagecolor="#ffffff"
     bordercolor="#666666"
     borderopacity="1.0"
     inkscape:pageshadow="2"
     inkscape:pageopacity="0.0"
     inkscape:pagecheckerboard="0"
     showgrid="false"
     inkscape:zoom="0.55769231"
     inkscape:cx="437.51724"
     inkscape:cy="447.37931"
     inkscape:window-width="1920"
     inkscape:window-height="1001"
     inkscape:window-x="-9"
     inkscape:window-y="207"
     inkscape:window-maximized="1"
     inkscape:current-layer="layer2" />
  <g
     inkscape:groupmode="layer"
     inkscape:label="Image"
     id="g8"
     style="display:none">
    <path
       style="fill:#000000;stroke-width:1.10773"
       d="M 405.82424,724.23528 C 379.84946,721.94951 359.73338,718.66037 338.97049,713.30409 276.9426,697.30265 220.70318,665.04876 174.81204,619.15761 123.85801,568.20358 89.571186,504.08608 75.861362,434.11655 70.970874,409.15749 69.750856,395.3343 69.750856,364.88293 c 0,-30.45137 1.220018,-44.27455 6.110506,-69.23362 13.709824,-69.96953 47.996648,-134.08703 98.950678,-185.04106 50.95402,-50.954024 115.07148,-85.240849 185.04109,-98.950679 24.959,-4.8904748 38.78223,-6.1105038 69.23361,-6.1105038 30.45138,0 44.27452,1.220029 69.23362,6.1105038 69.96949,13.70983 134.08702,47.996655 185.04098,98.950679 50.95405,50.95403 85.24086,115.07153 98.95067,185.04106 4.89055,24.95907 6.11051,38.78225 6.11051,69.23362 0,30.45137 -1.21996,44.27456 -6.11051,69.23362 -13.70981,69.96953 -47.99662,134.08703 -98.95067,185.04106 -57.20093,57.20102 -128.2426,92.04454 -209.96508,102.98084 -12.16141,1.62746 -57.06977,3.02102 -67.57202,2.09683 z m 42.64791,-51.4311 c 64.73245,-4.29837 124.47242,-27.59513 174.95547,-68.22726 50.20766,-40.41045 88.35949,-99.5734 104.19693,-161.5803 C 752.20149,346.7726 730.77528,247.56679 668.78073,170.54205 628.37023,120.3344 569.20728,82.182479 507.20043,66.345073 410.98842,41.771226 311.842,63.131791 234.9934,124.9906 c -17.82509,14.3482 -43.40237,40.42899 -41.50713,42.32422 0.55128,0.55128 71.5705,9.20397 75.84401,9.24053 4.44732,0.038 1.06263,5.46235 -26.43346,42.36224 -16.01167,21.48775 -29.29648,40.0656 -29.5218,41.28411 -0.22532,1.21851 4.84969,26.27033 11.27781,55.6707 6.42811,29.40037 11.68749,54.68884 11.68749,56.19659 0,1.94889 -0.72052,2.89312 -2.49241,3.26627 -2.49163,0.52473 -33.05543,3.94826 -35.2484,3.94826 -0.63842,0 -0.89837,0.42459 -0.57764,0.94354 0.32073,0.51894 8.45048,1.83063 18.06612,2.91488 9.61564,1.08423 18.28871,2.38621 19.27348,2.89329 2.10804,1.08546 3.89754,11.81972 2.2458,13.47145 -0.90464,0.90465 -59.38051,5.10341 -72.66066,5.21729 -11.22862,0.0962 0.65739,2.43113 34.28448,6.73469 20.10545,2.57307 37.17102,5.24472 37.92351,5.93699 1.07768,0.99144 -0.98018,14.23898 -9.6927,62.39695 -6.08348,33.62608 -11.06086,61.54886 -11.06086,62.05063 0,0.50177 19.4408,14.52691 43.20177,31.16697 23.76101,16.64006 43.20181,30.93069 43.20181,31.75693 0,1.81875 -1.52314,2.08555 -28.24731,4.94806 -23.3814,2.50445 -27.13961,3.09983 -27.13961,4.29945 0,1.82195 26.00413,17.80216 42.64794,26.20824 42.34361,21.38602 86.54911,32.2686 136.25176,33.54267 3.04628,0.0781 13.01592,-0.35453 22.15475,-0.96137 z M 348.8,623.84549 c -4.40104,-2.51561 -114.12701,-84.10825 -114.83123,-85.38888 -0.89719,-1.63158 18.69271,-123.87367 20.0725,-125.25345 0.58807,-0.58808 5.83654,0.21826 12.83488,1.97188 6.51197,1.63175 12.1089,2.69789 12.43756,2.36919 0.32867,-0.32869 0.38993,-0.74923 0.13603,-0.93453 -5.33243,-3.89232 -20.76753,-18.4815 -21.79744,-20.60279 -1.7144,-3.53112 -34.62129,-125.76639 -34.56321,-128.38777 0.023,-1.0333 18.34211,-27.51051 40.70937,-58.83821 l 40.66777,-56.95946 42.09404,-26.449 42.09404,-26.448991 51.50981,0.631942 51.50982,0.631939 8.01835,8.55808 c 4.41002,4.70694 8.49181,10.05351 9.0705,11.88128 0.57868,1.82777 4.13186,27.4996 7.89596,57.0485 l 6.84382,53.7253 -6.69141,38.07744 c -3.68023,20.94261 -7.12463,38.51078 -7.65424,39.0404 -0.52961,0.52961 -23.09223,2.72468 -50.13921,4.87792 -40.07241,3.19022 -49.43989,3.65128 -50.60058,2.49059 -0.7835,-0.78341 -9.64884,-25.54087 -19.7009,-55.01657 -10.05206,-29.47569 -18.53988,-53.85564 -18.86189,-54.17765 -0.97968,-0.97967 -0.69489,1.96721 2.18313,22.59151 1.52269,10.9121 2.7689,20.46327 2.76934,21.22484 0,2.04228 -2.67995,1.68905 -7.13627,-0.94023 -2.16718,-1.27869 -3.94033,-1.97907 -3.94033,-1.55642 0,0.42266 3.63626,5.10246 8.08061,10.39955 7.96586,9.4943 8.10034,9.75972 9.46695,18.68682 l 1.38623,9.05571 -8.97844,46.84148 c -4.93808,25.76281 -9.35595,47.22355 -9.81744,47.69052 -0.46148,0.46698 -10.77563,3.09078 -22.9202,5.83067 -12.14458,2.7399 -22.82882,5.28554 -23.7427,5.65697 -2.46694,1.00264 1.6349,1.94536 18.44306,4.23877 8.01126,1.09311 15.21101,2.38615 15.99939,2.8734 0.96961,0.59926 3.66794,18.13516 8.33872,54.19134 l 6.90531,53.30541 6.06409,7.42242 6.06408,7.42243 11.8117,40.96515 c 6.49644,22.53083 12.06371,41.2239 12.37155,41.54017 0.30795,0.31626 7.34818,2.84958 15.64513,5.62959 8.29685,2.78 15.27283,5.61768 15.50224,6.30595 0.57348,1.72026 -2.09783,2.05932 -41.26523,5.23774 -18.88693,1.53268 -36.08456,3.01277 -38.21695,3.28911 -2.1324,0.27634 -4.8632,-0.0612 -6.06831,-0.75006 z m 96.41673,-15.15941 c -24.40745,-7.15294 -33.5135,-10.27747 -34.48665,-11.83338 -0.72734,-1.16278 -5.92949,-19.22462 -11.56045,-40.13741 -7.21958,-26.8129 -9.89155,-38.36987 -9.06252,-39.19889 0.82903,-0.82903 10.83578,2.79316 33.94087,12.28572 l 32.76533,13.46137 57.86269,2.70421 c 79.82836,3.73076 80.57143,3.78387 80.57143,5.75845 0,1.90414 -29.06427,47.39198 -32.548,50.94021 -2.01686,2.05409 -8.04883,3.33569 -43.01324,9.13883 -22.36711,3.71234 -40.81095,6.71607 -40.9863,6.67494 -0.17536,-0.0411 -15.24281,-4.44846 -33.48316,-9.79405 z m 83.31984,-71.66887 -71.69568,-2.59601 -39.0781,-16.13601 c -21.493,-8.87481 -39.66445,-16.73813 -40.38093,-17.47405 -0.71649,-0.73593 -4.04624,-21.27733 -7.39936,-45.64757 -4.93175,-35.84317 -5.82824,-44.58523 -4.69194,-45.75247 1.5782,-1.62129 12.8151,-4.54981 17.68925,-4.61014 1.753,-0.0217 20.94456,5.40936 42.64791,12.06904 l 39.4605,12.10847 88.06517,3.46712 c 48.43584,1.90691 88.52964,3.92631 89.09746,4.48752 0.8965,0.88627 -20.5225,99.34565 -22.2036,102.06576 -0.74452,1.20458 -7.63531,1.05536 -91.51068,-1.98166 z m 19.07813,-116.4093 -85.84969,-2.68944 -43.20177,-15.54457 c -23.76098,-8.54952 -43.87706,-16.19071 -44.70233,-16.98043 -1.25794,-1.20375 -0.20969,-8.12545 6.48449,-42.82065 4.39173,-22.76165 8.43165,-41.85837 8.97777,-42.43716 1.76628,-1.87235 3.08759,0.79716 7.3259,14.80033 2.42196,8.00203 4.81169,13.91213 5.77487,14.28169 0.90358,0.34676 27.0288,-1.57862 58.05609,-4.27863 52.93957,-4.60685 56.4716,-5.04585 57.36411,-7.12978 0.52296,-1.22137 2.73876,-10.69487 4.92378,-21.05221 2.18501,-10.35736 4.60519,-19.4851 5.37817,-20.2839 1.1587,-1.19746 12.66168,-0.95441 65.54697,1.38493 35.27779,1.56049 66.22444,2.83715 68.77024,2.83701 2.54591,-1.3e-4 5.33343,0.70438 6.19459,1.56557 1.02963,1.02964 3.17444,13.08525 6.26348,35.20625 l 4.69758,33.64041 -6.75631,34.8582 c -3.71602,19.17199 -6.98186,35.48127 -7.25735,36.24284 -0.67162,1.85678 -12.9469,1.69027 -117.99059,-1.60046 z m 27.22875,-152.2413 c -24.93042,-0.49332 -45.75135,-1.32023 -46.26866,-1.83758 -0.51732,-0.51733 0.0653,-7.78789 1.2955,-16.15679 1.22981,-8.36888 2.23608,-17.67892 2.23608,-20.68897 0,-3.01005 -1.78456,-20.78097 -3.96571,-39.49095 -3.53534,-30.32635 -3.78137,-34.15294 -2.26675,-35.26041 1.89843,-1.38821 97.06276,-4.66037 99.09047,-3.40716 0.65191,0.40293 5.15065,8.32092 9.99711,17.59555 l 8.81173,16.86296 4.38841,40.43244 c 2.94392,27.12429 4.0284,40.88818 3.29486,41.8171 -1.22672,1.55336 -4.58061,1.55922 -76.61304,0.13381 z"
       id="path2811" />
  </g>
  <g
     inkscape:groupmode="layer"
     id="layer2"
     inkscape:label="Image 2"
     style="display:inline">
    <path
       style="fill:#00df4d;stroke-width:1.26792;fill-opacity:1"
       d="m 518.97735,536.16778 -61.72802,-2.35108 -34.86499,-14.52372 c -44.83046,-18.67504 -44.68643,-18.59995 -45.65265,-23.80385 -1.99683,-10.75462 -9.66091,-66.17459 -10.42594,-75.39133 l -0.85988,-10.35954 6.7436,-2.00263 c 3.70898,-1.10145 8.12394,-2.00264 9.81103,-2.00264 3.36095,0 16.22798,3.59806 56.6983,15.85476 l 26.62623,8.06392 36.76955,1.38812 c 60.73134,2.29271 122.48302,5.04993 130.91229,5.84524 6.73068,0.63505 7.92447,1.11702 7.92447,3.19932 0,4.01432 -15.83141,77.0613 -20.37798,94.0251 l -1.27433,4.75468 -19.28683,-0.17262 c -10.60777,-0.095 -47.06446,-1.23063 -81.01485,-2.52373 z"
       id="path3572"
       inkscape:export-filename="C:\Users\User\Downloads\path3572.png"
       inkscape:export-xdpi="96"
       inkscape:export-ydpi="96" />
    <path
       style="fill:#00df4d;fill-opacity:1;stroke-width:1.26792"
       d="m 590.84867,421.32663 c -6.27618,-0.20229 -37.94237,-1.22029 -70.36931,-2.26223 l -58.95808,-1.89441 -41.20726,-15.08783 c -22.66399,-8.2983 -42.27989,-15.52562 -43.59088,-16.0607 -2.0897,-0.85291 -2.29378,-1.93505 -1.655,-8.77562 0.70205,-7.518 11.06508,-62.01997 13.73062,-72.21299 1.63084,-6.23632 2.29022,-5.26745 7.55364,11.09901 2.22461,6.91737 4.85391,12.79027 5.90715,13.19444 3.32104,1.2744 108.17174,-7.67851 113.45637,-9.68772 2.56557,-0.97543 3.43005,-3.41424 7.18263,-20.26308 2.34632,-10.53481 4.98169,-20.13291 5.85639,-21.32913 1.50098,-2.05272 5.36183,-2.01996 68.70761,0.58298 36.9145,1.51686 68.02083,3.10465 69.1252,3.52844 2.28681,0.87753 4.11773,9.9801 9.19079,45.69263 l 3.25539,22.91672 -6.45013,32.87157 c -3.54758,18.07936 -6.76217,34.15533 -7.14355,35.72438 l -0.69342,2.85281 -31.24346,-0.26074 c -17.1839,-0.14339 -36.37851,-0.42623 -42.6547,-0.62853 z"
       id="path3648"
       inkscape:export-filename="C:\Users\User\Downloads\path3572.png"
       inkscape:export-xdpi="96"
       inkscape:export-ydpi="96" />
    <path
       style="fill:#00df4d;fill-opacity:1;stroke-width:1.26792"
       d="m 563.85778,267.49757 c -18.33175,-0.49941 -33.68723,-1.26479 -34.12328,-1.70084 -0.43605,-0.43604 0.1061,-8.92547 1.20478,-18.86539 1.09868,-9.93991 1.78641,-19.49898 1.52829,-21.24236 -2.3939,-16.16883 -7.03719,-68.84189 -6.14336,-69.68974 1.32394,-1.25584 55.78717,-3.84937 80.83538,-3.84937 h 17.32612 l 2.53975,4.12073 c 1.39686,2.2664 5.61389,10.11163 9.37118,17.43384 l 6.83142,13.31311 3.34566,31.06393 c 1.84011,17.08517 3.46295,35.34315 3.60632,40.5733 l 0.26067,9.50937 -26.62623,0.12072 c -14.64443,0.0664 -41.62494,-0.28789 -59.9567,-0.7873 z"
       id="path3687"
       inkscape:export-filename="C:\Users\User\Downloads\path3572.png"
       inkscape:export-xdpi="96"
       inkscape:export-ydpi="96" />
    <path
       style="fill:#00df4d;fill-opacity:1;stroke-width:1.26792"
       d="m 548.15673,266.33687 c -8.83614,-0.3897 -16.50368,-1.14898 -17.03899,-1.68728 -0.53531,-0.5383 -0.25626,-9.1075 0.62011,-19.04267 1.35509,-15.36234 1.30446,-20.62033 -0.33847,-35.15687 -2.6124,-23.11416 -5.0488,-53.1828 -4.36472,-53.86688 0.73413,-0.73413 40.94779,-2.83757 72.16351,-3.77464 l 24.8324,-0.74544 9.27047,17.33428 9.27048,17.33427 1.68908,15.35794 c 2.36872,21.53741 5.54615,56.76151 5.54615,61.48298 v 3.95763 L 607.0146,267.2878 c -23.53569,-0.13331 -50.02172,-0.56124 -58.85787,-0.95093 z"
       id="path3726"
       inkscape:export-filename="C:\Users\User\Downloads\path3572.png"
       inkscape:export-xdpi="96"
       inkscape:export-ydpi="96" />
    <path
       style="fill:#00df4d;fill-opacity:1;stroke-width:1.26792"
       d="m 341.70326,617.82419 c -4.5328,-3.25355 -30.35073,-22.40019 -57.37319,-42.54808 -46.60679,-34.74996 -49.13145,-36.83863 -49.12648,-40.64299 0.008,-6.52155 18.24955,-119.68341 19.49264,-120.9265 0.2464,-0.2464 5.6537,0.71153 12.0162,2.12876 13.66641,3.04414 12.88497,2.98348 12.7772,0.99188 -0.0472,-0.8717 -4.39398,-5.27332 -9.65959,-9.78138 -5.26561,-4.50806 -10.36952,-9.9284 -11.34204,-12.0452 -1.83974,-4.0044 -17.07035,-59.08694 -28.32216,-102.42898 l -6.50081,-25.04115 4.09355,-6.02278 c 4.22407,-6.21481 55.45673,-78.67238 69.40711,-98.16141 l 7.86817,-10.99203 41.66709,-26.15031 41.66709,-26.1503 51.15766,0.0458 51.15764,0.0458 7.24624,7.93451 c 3.98544,4.36398 8.07227,9.64619 9.08186,11.73825 1.5676,3.24836 5.92184,33.43774 13.98706,96.97694 l 1.84846,14.56241 -4.36657,24.74297 c -4.53895,25.71971 -9.4452,51.12253 -9.98663,51.70722 -0.95012,1.02604 -82.2861,7.90269 -93.47728,7.90317 l -5.9315,2.6e-4 -2.75678,-7.29052 c -1.51622,-4.00978 -10.18921,-28.68659 -19.2733,-54.83735 -9.0841,-26.15076 -16.72825,-47.78457 -16.98702,-48.07513 -1.66145,-1.86563 -1.39128,3.29733 1.21061,23.13432 1.95667,14.91785 2.48458,22.38997 1.57975,22.36005 -0.74744,-0.0247 -2.78537,-0.86034 -4.52876,-1.85694 -7.33165,-4.19116 -6.74826,-2.05505 2.54352,9.31307 4.18664,5.12218 7.90268,10.54252 8.25786,12.04519 3.18551,13.477 3.12483,14.19533 -4.58958,54.32806 -7.8637,40.90942 -10.6776,54.09181 -11.78218,55.19638 -0.36489,0.3649 -10.6855,3.07802 -22.93469,6.02916 -21.15188,5.09602 -24.6625,6.23616 -23.32372,7.57494 0.3181,0.31811 7.92107,1.72097 16.89548,3.11747 8.97442,1.3965 16.82241,3.04439 17.43997,3.66195 1.19655,1.19655 6.12823,34.01002 11.89801,79.16468 l 3.52213,27.56441 6.02597,7.44741 c 5.72348,7.07356 6.44839,8.90406 14.44073,36.46533 4.62811,15.95986 10.09888,34.54492 12.15726,41.30014 l 3.74251,12.28221 6.62678,2.45569 c 3.64474,1.35062 10.1928,3.74529 14.55126,5.3215 4.35846,1.57621 7.92447,3.35995 7.92447,3.96386 0,0.60392 -0.43968,1.09803 -0.97708,1.09803 -0.5374,0 -17.21458,1.42641 -37.06038,3.16979 -19.84581,1.74338 -37.80675,3.15298 -39.9132,3.13242 -2.49554,-0.0243 -6.70127,-2.09838 -12.07134,-5.95292 z"
       id="path3765"
       inkscape:export-filename="C:\Users\User\Downloads\path3572.png"
       inkscape:export-xdpi="96"
       inkscape:export-ydpi="96" />
    <path
       style="fill:#00df4d;fill-opacity:1;stroke-width:1.26792"
       d="M 389.88405,722.05507 C 305.97272,711.42888 236.24961,677.99496 177.64299,620.28035 117.23779,560.79455 79.019742,481.24856 71.517359,399.39342 69.652134,379.04277 70.763246,329.55968 73.461803,312.79814 88.228192,221.07975 133.98696,141.85664 205.49524,84.205938 230.27523,64.228055 269.35133,41.665126 299.46193,29.948641 326.42599,19.456523 363.50888,10.424573 390.96932,7.6610049 407.94395,5.9527111 450.5856,5.9627916 467.40954,7.6790752 552.18947,16.327847 636.84681,59.524801 694.4422,123.52395 c 24.50413,27.22864 40.67692,51.0845 56.79778,83.78025 27.08127,54.92523 38.25633,107.18197 36.3331,169.90069 -1.57111,51.23598 -11.92368,94.04769 -34.3444,142.02669 -29.62072,63.38663 -83.58734,121.29328 -147.14274,157.88546 -37.12124,21.37266 -84.35663,37.36187 -129.12394,43.70857 -19.61482,2.7808 -69.28917,3.48216 -87.07795,1.22946 z m 59.59203,-48.82751 c 95.13009,-7.21046 176.15485,-52.4038 231.26037,-128.99052 74.52046,-103.57 76.58571,-244.78391 5.1409,-351.51387 C 657.66171,150.57241 619.10019,115.80212 573.73181,91.603402 512.38347,58.881238 439.00892,48.11815 369.31227,61.617725 c -46.85766,9.075881 -93.63979,30.365628 -130.31018,59.301945 -20.80968,16.42075 -45.64496,41.27246 -45.64496,45.67516 0,1.19193 9.17842,2.73023 33.91674,5.68443 48.33085,5.77159 43.71877,4.78891 41.61046,8.86594 -0.97324,1.88204 -13.0138,18.76511 -26.75679,37.51792 -30.14591,41.13517 -29.80299,40.59395 -28.88738,45.59352 0.39359,2.14913 5.52124,26.69136 11.3948,54.53828 5.87354,27.84692 10.51049,51.81052 10.3043,53.25246 -0.34149,2.38823 -1.95552,2.80969 -18.12569,4.73308 -9.76295,1.16127 -18.29285,2.15975 -18.95534,2.21885 -0.74727,0.0667 -0.73837,0.57361 0.0235,1.33539 0.67538,0.67539 8.8248,2.21622 18.10986,3.42411 9.28505,1.20788 17.72815,2.81494 18.76243,3.57123 1.03429,0.75628 2.19234,3.69988 2.57346,6.5413 l 0.69293,5.16622 -8.7015,0.84676 c -9.01327,0.87708 -62.60109,4.52751 -66.96224,4.56149 -1.58404,0.0127 -2.03394,0.45776 -1.25208,1.23961 0.67119,0.6712 17.44376,3.52206 37.27237,6.33524 19.8286,2.81318 36.61431,5.67717 37.30156,6.36442 1.54821,1.54821 0.82738,6.33779 -10.86493,72.19102 l -9.09833,51.24334 4.28046,3.57348 c 2.35426,1.96542 14.58319,10.827 27.17541,19.69241 32.45187,22.84738 53.95887,38.775 53.95887,39.9608 0,0.55965 -0.42792,1.02813 -0.95094,1.0411 -4.08014,0.10105 -52.72404,6.31589 -53.20575,6.7976 -1.20284,1.20285 1.12745,3.3437 9.61845,8.8365 42.91201,27.75963 89.52671,44.82885 137.09608,50.20139 24.8083,2.80188 33.38941,3.00258 55.78828,1.30484 z"
       id="path3804"
       inkscape:export-filename="C:\Users\User\Downloads\path3572.png"
       inkscape:export-xdpi="96"
       inkscape:export-ydpi="96" />
    <path
       style="fill:#00df4d;fill-opacity:1;stroke-width:1.26792"
       d="m 449.60457,609.26167 c -38.62134,-11.48622 -37.623,-11.03216 -39.95426,-18.17155 -6.72632,-20.59912 -19.36438,-70.80132 -18.13359,-72.03211 1.01638,-1.01638 10.04115,2.29541 40.53839,14.87626 l 23.78629,9.81241 28.83221,1.37123 c 77.77865,3.69906 107.53427,5.44739 108.49602,6.37485 1.06581,1.0278 -9.58452,19.04496 -23.42813,39.63336 -4.81049,7.15424 -8.80889,11.72763 -10.97998,12.55897 -3.77538,1.44565 -75.45084,13.80554 -79.48942,13.70735 -1.39471,-0.0339 -14.74509,-3.69275 -29.66753,-8.13077 z"
       id="path3843"
       inkscape:export-filename="C:\Users\User\Downloads\path3572.png"
       inkscape:export-xdpi="96"
       inkscape:export-ydpi="96" />
  </g>
  <g
     inkscape:groupmode="layer"
     id="layer1"
     inkscape:label="Image 1"
     style="display:none">
    <path
       style="fill:#9035e0;stroke-width:1.26792"
       d="M 389.88405,722.05507 C 305.97272,711.42888 236.24961,677.99496 177.64299,620.28035 117.23779,560.79455 79.019742,481.24856 71.517359,399.39342 69.652134,379.04277 70.763246,329.55968 73.461803,312.79814 88.228192,221.07975 133.98696,141.85664 205.49524,84.205938 230.27523,64.228055 269.35133,41.665126 299.46193,29.948641 326.42599,19.456523 363.50888,10.424573 390.96932,7.6610049 407.94395,5.9527111 450.5856,5.9627916 467.40954,7.6790752 552.18947,16.327847 636.84681,59.524801 694.4422,123.52395 c 24.50413,27.22864 40.67692,51.0845 56.79778,83.78025 27.08127,54.92523 38.25633,107.18197 36.3331,169.90069 -1.57111,51.23598 -11.92368,94.04769 -34.3444,142.02669 -29.62072,63.38663 -83.58734,121.29328 -147.14274,157.88546 -37.12124,21.37266 -84.35663,37.36187 -129.12394,43.70857 -19.61482,2.7808 -69.28917,3.48216 -87.07795,1.22946 z m 59.59203,-48.82751 c 95.13009,-7.21046 176.15485,-52.4038 231.26037,-128.99052 74.52046,-103.57 76.58571,-244.78391 5.1409,-351.51387 C 657.66171,150.57241 619.10019,115.80212 573.73181,91.603402 512.38347,58.881238 439.00892,48.11815 369.31227,61.617725 c -46.85766,9.075881 -93.63979,30.365628 -130.31018,59.301945 -20.80968,16.42075 -45.64496,41.27246 -45.64496,45.67516 0,1.19193 9.17842,2.73023 33.91674,5.68443 48.33085,5.77159 43.71877,4.78891 41.61046,8.86594 -0.97324,1.88204 -13.0138,18.76511 -26.75679,37.51792 -30.14591,41.13517 -29.80299,40.59395 -28.88738,45.59352 0.39359,2.14913 5.52124,26.69136 11.3948,54.53828 5.87354,27.84692 10.51049,51.81052 10.3043,53.25246 -0.34149,2.38823 -1.95552,2.80969 -18.12569,4.73308 -9.76295,1.16127 -18.29285,2.15975 -18.95534,2.21885 -0.74727,0.0667 -0.73837,0.57361 0.0235,1.33539 0.67538,0.67539 8.8248,2.21622 18.10986,3.42411 9.28505,1.20788 17.72815,2.81494 18.76243,3.57123 1.03429,0.75628 2.19234,3.69988 2.57346,6.5413 l 0.69293,5.16622 -8.7015,0.84676 c -9.01327,0.87708 -62.60109,4.52751 -66.96224,4.56149 -1.58404,0.0127 -2.03394,0.45776 -1.25208,1.23961 0.67119,0.6712 17.44376,3.52206 37.27237,6.33524 19.8286,2.81318 36.61431,5.67717 37.30156,6.36442 1.54821,1.54821 0.82738,6.33779 -10.86493,72.19102 l -9.09833,51.24334 4.28046,3.57348 c 2.35426,1.96542 14.58319,10.827 27.17541,19.69241 32.45187,22.84738 53.95887,38.775 53.95887,39.9608 0,0.55965 -0.42792,1.02813 -0.95094,1.0411 -4.08014,0.10105 -52.72404,6.31589 -53.20575,6.7976 -1.20284,1.20285 1.12745,3.3437 9.61845,8.8365 42.91201,27.75963 89.52671,44.82885 137.09608,50.20139 24.8083,2.80188 33.38941,3.00258 55.78828,1.30484 z"
       id="path3337" />
    <path
       style="fill:#9035e0;stroke-width:1.26792"
       d="m 341.70326,617.82419 c -4.5328,-3.25355 -30.35073,-22.40019 -57.37319,-42.54808 -46.60679,-34.74996 -49.13145,-36.83863 -49.12648,-40.64299 0.008,-6.52155 18.24955,-119.68341 19.49264,-120.9265 0.2464,-0.2464 5.6537,0.71153 12.0162,2.12876 13.66641,3.04414 12.88497,2.98348 12.7772,0.99188 -0.0472,-0.8717 -4.39398,-5.27332 -9.65959,-9.78138 -5.26561,-4.50806 -10.36952,-9.9284 -11.34204,-12.0452 -1.83974,-4.0044 -17.07035,-59.08694 -28.32216,-102.42898 l -6.50081,-25.04115 4.09355,-6.02278 c 4.22407,-6.21481 55.45673,-78.67238 69.40711,-98.16141 l 7.86817,-10.99203 41.66709,-26.15031 41.66709,-26.1503 51.15766,0.0458 51.15764,0.0458 7.24624,7.93451 c 3.98544,4.36398 8.07227,9.64619 9.08186,11.73825 1.5676,3.24836 5.92184,33.43774 13.98706,96.97694 l 1.84846,14.56241 -4.36657,24.74297 c -4.53895,25.71971 -9.4452,51.12253 -9.98663,51.70722 -0.95012,1.02604 -82.2861,7.90269 -93.47728,7.90317 l -5.9315,2.6e-4 -2.75678,-7.29052 c -1.51622,-4.00978 -10.18921,-28.68659 -19.2733,-54.83735 -9.0841,-26.15076 -16.72825,-47.78457 -16.98702,-48.07513 -1.66145,-1.86563 -1.39128,3.29733 1.21061,23.13432 1.95667,14.91785 2.48458,22.38997 1.57975,22.36005 -0.74744,-0.0247 -2.78537,-0.86034 -4.52876,-1.85694 -7.33165,-4.19116 -6.74826,-2.05505 2.54352,9.31307 4.18664,5.12218 7.90268,10.54252 8.25786,12.04519 3.18551,13.477 3.12483,14.19533 -4.58958,54.32806 -7.8637,40.90942 -10.6776,54.09181 -11.78218,55.19638 -0.36489,0.3649 -10.6855,3.07802 -22.93469,6.02916 -21.15188,5.09602 -24.6625,6.23616 -23.32372,7.57494 0.3181,0.31811 7.92107,1.72097 16.89548,3.11747 8.97442,1.3965 16.82241,3.04439 17.43997,3.66195 1.19655,1.19655 6.12823,34.01002 11.89801,79.16468 l 3.52213,27.56441 6.02597,7.44741 c 5.72348,7.07356 6.44839,8.90406 14.44073,36.46533 4.62811,15.95986 10.09888,34.54492 12.15726,41.30014 l 3.74251,12.28221 6.62678,2.45569 c 3.64474,1.35062 10.1928,3.74529 14.55126,5.3215 4.35846,1.57621 7.92447,3.35995 7.92447,3.96386 0,0.60392 -0.43968,1.09803 -0.97708,1.09803 -0.5374,0 -17.21458,1.42641 -37.06038,3.16979 -19.84581,1.74338 -37.80675,3.15298 -39.9132,3.13242 -2.49554,-0.0243 -6.70127,-2.09838 -12.07134,-5.95292 z"
       id="path3376" />
    <path
       style="fill:#9035e0;stroke-width:1.26792"
       d="m 590.84867,421.32663 c -6.27618,-0.20229 -37.94237,-1.22029 -70.36931,-2.26223 l -58.95808,-1.89441 -41.20726,-15.08783 c -22.66399,-8.2983 -42.27989,-15.52562 -43.59088,-16.0607 -2.0897,-0.85291 -2.29378,-1.93505 -1.655,-8.77562 0.70205,-7.518 11.06508,-62.01997 13.73062,-72.21299 1.63084,-6.23632 2.29022,-5.26745 7.55364,11.09901 2.22461,6.91737 4.85391,12.79027 5.90715,13.19444 3.32104,1.2744 108.17174,-7.67851 113.45637,-9.68772 2.56557,-0.97543 3.43005,-3.41424 7.18263,-20.26308 2.34632,-10.53481 4.98169,-20.13291 5.85639,-21.32913 1.50098,-2.05272 5.36183,-2.01996 68.70761,0.58298 36.9145,1.51686 68.02083,3.10465 69.1252,3.52844 2.28681,0.87753 4.11773,9.9801 9.19079,45.69263 l 3.25539,22.91672 -6.45013,32.87157 c -3.54758,18.07936 -6.76217,34.15533 -7.14355,35.72438 l -0.69342,2.85281 -31.24346,-0.26074 c -17.1839,-0.14339 -36.37851,-0.42623 -42.6547,-0.62853 z"
       id="path3415" />
    <path
       style="fill:#9035e0;stroke-width:1.26792"
       d="m 518.97735,536.16778 -61.72802,-2.35108 -34.86499,-14.52372 c -44.83046,-18.67504 -44.68643,-18.59995 -45.65265,-23.80385 -1.99683,-10.75462 -9.66091,-66.17459 -10.42594,-75.39133 l -0.85988,-10.35954 6.7436,-2.00263 c 3.70898,-1.10145 8.12394,-2.00264 9.81103,-2.00264 3.36095,0 16.22798,3.59806 56.6983,15.85476 l 26.62623,8.06392 36.76955,1.38812 c 60.73134,2.29271 122.48302,5.04993 130.91229,5.84524 6.73068,0.63505 7.92447,1.11702 7.92447,3.19932 0,4.01432 -15.83141,77.0613 -20.37798,94.0251 l -1.27433,4.75468 -19.28683,-0.17262 c -10.60777,-0.095 -47.06446,-1.23063 -81.01485,-2.52373 z"
       id="path3454" />
    <path
       style="fill:#9035e0;stroke-width:1.26792"
       d="m 563.85778,267.49757 c -18.33175,-0.49941 -33.68723,-1.26479 -34.12328,-1.70084 -0.43605,-0.43604 0.1061,-8.92547 1.20478,-18.86539 1.09868,-9.93991 1.78641,-19.49898 1.52829,-21.24236 -2.3939,-16.16883 -7.03719,-68.84189 -6.14336,-69.68974 1.32394,-1.25584 55.78717,-3.84937 80.83538,-3.84937 h 17.32612 l 2.53975,4.12073 c 1.39686,2.2664 5.61389,10.11163 9.37118,17.43384 l 6.83142,13.31311 3.34566,31.06393 c 1.84011,17.08517 3.46295,35.34315 3.60632,40.5733 l 0.26067,9.50937 -26.62623,0.12072 c -14.64443,0.0664 -41.62494,-0.28789 -59.9567,-0.7873 z"
       id="path3493" />
    <path
       style="fill:#9035e0;stroke-width:1.26792"
       d="m 449.60457,609.26167 c -38.62134,-11.48622 -37.623,-11.03216 -39.95426,-18.17155 -6.72632,-20.59912 -19.36438,-70.80132 -18.13359,-72.03211 1.01638,-1.01638 10.04115,2.29541 40.53839,14.87626 l 23.78629,9.81241 28.83221,1.37123 c 77.77865,3.69906 107.53427,5.44739 108.49602,6.37485 1.06581,1.0278 -9.58452,19.04496 -23.42813,39.63336 -4.81049,7.15424 -8.80889,11.72763 -10.97998,12.55897 -3.77538,1.44565 -75.45084,13.80554 -79.48942,13.70735 -1.39471,-0.0339 -14.74509,-3.69275 -29.66753,-8.13077 z"
       id="path3532" />
  </g>
</svg>
