<?xml version="1.0" encoding="UTF-8" standalone="no"?>
<!-- Created with Inkscape (http://www.inkscape.org/) -->

<svg
   version="1.1"
   id="svg2"
   width="1846"
   height="994"
   viewBox="0 0 1846 994"
   sodipodi:docname="logo-black-friday.svg"
   inkscape:version="1.1 (c68e22c387, 2021-05-23)"
   xmlns:inkscape="http://www.inkscape.org/namespaces/inkscape"
   xmlns:sodipodi="http://sodipodi.sourceforge.net/DTD/sodipodi-0.dtd"
   xmlns="http://www.w3.org/2000/svg"
   xmlns:svg="http://www.w3.org/2000/svg">
  <defs
     id="defs6" />
  <sodipodi:namedview
     id="namedview4"
     pagecolor="#ffffff"
     bordercolor="#666666"
     borderopacity="1.0"
     inkscape:pageshadow="2"
     inkscape:pageopacity="0.0"
     inkscape:pagecheckerboard="0"
     showgrid="false"
     inkscape:zoom="0.2771353"
     inkscape:cx="1324.2629"
     inkscape:cy="633.2647"
     inkscape:window-width="1920"
     inkscape:window-height="1001"
     inkscape:window-x="-9"
     inkscape:window-y="207"
     inkscape:window-maximized="1"
     inkscape:current-layer="g8" />
  <g
     inkscape:groupmode="layer"
     inkscape:label="Image"
     id="g8">
    <g
       id="g5017"
       transform="translate(4)">
      <path
         style="color:#000000;fill:#000000;-inkscape-stroke:none"
         d="m 115.61932,976.41085 c -2.83086,-20.0002 -6.87913,-45.4467 -18.192923,-114.35642 -16.67846,-101.5846 -22.04941,-138.62185 -26.97273,-186.00001 -1.89062,-18.19374 -6.05159,-70.26782 -5.6484,-70.68904 0.23018,-0.24048 29.56744,-4.46966 53.636193,-7.73206 62.19764,-8.43058 122.40966,-16.74851 178.11754,-24.60589 34.98964,-4.93515 64.529,-8.973 65.64301,-8.973 2.44717,0 3.23945,1.80292 3.23945,7.37169 0,2.31446 0.62305,6.66516 1.38456,9.66821 0.76151,3.00306 1.69292,9.2851 2.06981,13.9601 1.00475,12.46313 4.11568,35.27625 8.52286,62.49999 2.13691,13.2 4.60302,29.625 5.48025,36.5 0.87723,6.875 2.03316,15.25188 2.56874,18.6153 0.53558,3.36341 0.98067,8.08841 0.98909,10.5 0.008,2.41158 0.43467,5.04782 0.94722,5.85831 0.60521,0.95702 0.53992,1.71586 -0.18625,2.16465 -0.78719,0.48652 -0.63748,1.42463 0.50584,3.16956 1.84157,2.81059 3.0611,11.58725 8.22482,59.19219 4.19472,38.6716 7.56941,64.2605 10.90873,82.71658 1.32187,7.3059 2.7114,17.3334 3.08785,22.2834 0.37644,4.95 1.10208,11.025 1.61252,13.5 1.22222,5.9262 1.33265,6.32754 2.06369,7.50004 1.14502,1.8364 2.14394,23.5 1.08361,23.5 -0.54668,0 -7.69208,0.9074 -15.87865,2.0164 -8.18658,1.109 -41.88469,5.4008 -74.88469,9.5373 -87.63843,10.9854 -128.12335,16.8681 -182,26.4456 -9.35,1.6621 -18.81543,3.2901 -21.03429,3.6177 l -4.0343,0.5957 z m 82.13059,-54.3835 c 9.87113,-1.4098 39.12698,-6.21514 39.47252,-6.48344 0.15453,-0.1199 -3.08367,-22.2167 -7.196,-49.10378 -4.11233,-26.8871 -10.22055,-67.1107 -13.57384,-89.3857 -11.99485,-79.67875 -21.78682,-138.10902 -23.41822,-139.74043 -0.7174,-0.71739 -22.44071,1.83096 -39.09291,4.58598 l -10,1.65445 -0.29798,3.54217 c -0.16388,1.94819 1.09187,9.59818 2.79057,16.99999 3.00447,13.09153 12.00741,71.14298 12.00741,77.42444 0,1.72336 0.41549,3.56089 0.92332,4.08339 0.50782,0.5225 1.66377,6.35 2.56876,12.95001 1.44586,10.5443 5.76834,38.4641 8.43759,54.5 0.50353,3.025 2.33919,16.3 4.07925,29.5 1.74006,13.2 4.96297,34.29138 7.16203,46.86978 2.19906,12.5784 4.24817,25.2909 4.55357,28.25 0.63414,6.14424 0.19595,5.97954 11.58393,4.35314 z m 54.19155,-132.57172 c 2.75,-0.2947 16.025,-2.3717 29.5,-4.6154 13.475,-2.2438 25.9625,-4.2877 27.75,-4.5421 3.12783,-0.4451 3.25114,-0.637 3.28042,-5.1031 0.0167,-2.5523 -1.65589,-13.0781 -3.71695,-23.39061 -3.57571,-17.89108 -3.85402,-18.75 -6.07548,-18.75 -3.07562,0 -55.64533,8.44866 -65.22385,10.48235 -4.11723,0.87415 -7.76257,1.91074 -8.10076,2.30351 -0.60184,0.69896 4.0569,36.97525 5.47317,42.61815 0.71108,2.8332 0.76931,2.8531 6.41552,2.1961 3.13386,-0.3646 7.94793,-0.9041 10.69793,-1.1989 z M 243.82237,680.0335 c 17.62962,-2.22342 75.38583,-11.71688 76.87236,-12.63561 0.55131,-0.34073 0.65609,-2.93717 0.25079,-6.21436 -1.45417,-11.75802 -6.40888,-42.36725 -6.94471,-42.90309 -0.74666,-0.74666 -99.75246,15.5671 -100.79372,16.60836 -0.76543,0.76543 5.41481,42.8663 6.83642,46.57097 0.52101,1.35772 1.43387,1.60324 4.2801,1.1512 1.98982,-0.31603 10.76426,-1.47589 19.49876,-2.57747 z m 189.16078,245.87545 c -1.59187,-7.89504 -2.92747,-17.40824 -2.968,-21.14054 -0.0405,-3.7324 -0.52369,-7.1074 -1.07369,-7.5 -0.55,-0.3927 -1.10057,-3.9874 -1.22348,-7.9881 -0.19027,-6.193 -13.49129,-102.42768 -17.72266,-128.22588 -0.76679,-4.675 -1.40588,-11.20001 -1.42021,-14.50001 -0.0383,-8.82289 -4.55906,-42.7734 -10.71917,-80.5 -7.53991,-46.17701 -9.28069,-58.8986 -8.78289,-64.18516 0.28921,-3.07126 -0.54079,-12.70217 -1.96619,-22.81483 -1.35667,-9.625 -2.17388,-17.7903 -1.81603,-18.1451 0.35784,-0.35481 18.20063,-2.96055 39.65063,-5.79055 58.57626,-7.72823 178.05795,-23.58071 211.6914,-28.08659 16.33026,-2.18777 30.82237,-3.97776 32.20468,-3.97776 2.06975,0 2.59855,0.57356 2.9964,3.25 0.26571,1.7875 0.9611,6.48668 1.54531,10.44263 0.58422,3.95594 1.06221,10.06511 1.06221,13.57593 0,7.10493 0.4323,10.36633 8.91148,67.23144 8.36592,56.10549 11.96454,82.55725 12.65217,92.99999 0.32594,4.95 0.9832,9.9 1.46058,11 0.47737,1.1 3.83394,25.175 7.45905,53.50001 3.6251,28.325 8.77748,68.15 11.44973,88.5 2.96628,22.58908 4.50703,37.43258 3.95588,38.11078 -0.49651,0.611 -3.26213,1.3663 -6.14582,1.6786 -2.88369,0.3123 -13.79307,1.7464 -24.24307,3.187 -93.57932,12.90014 -233.44624,31.56454 -248.032,33.09834 l -6.03199,0.6343 z m 61.45831,-43.83604 c 15.33546,-1.5506 33.39556,-4.1237 34.1847,-4.8705 0.37658,-0.3564 -0.42604,-8.52298 -1.78362,-18.14798 -21.66284,-153.58642 -36.5266,-255.36858 -38.00562,-260.25 -0.39325,-1.29788 -1.59518,-1.75 -4.65225,-1.75 -5.57262,0 -30.01601,3.95966 -31.15083,5.04622 -0.53888,0.51596 -0.33893,1.55424 0.49216,2.55564 1.24463,1.49969 1.17897,1.62024 -0.59238,1.0876 -7.91921,-2.38125 -11.74685,-2.89444 -13.98435,-1.87497 -2.19879,1.00183 -2.33643,1.50993 -1.86478,6.88359 2.45657,27.98814 19.89794,148.57422 33.88905,234.30192 7.11965,43.62418 6.02039,39.29858 9.81771,38.63258 1.73261,-0.3038 7.87521,-1.0302 13.65021,-1.6141 z m 147.66385,-20.51848 c 15.63904,-2.475 28.63747,-4.5 28.88539,-4.5 1.40274,0 -0.78927,-3.048 -12.59577,-17.5143 -7.17559,-8.7921 -16.06309,-19.7439 -19.75,-24.3371 -3.68691,-4.5933 -8.95347,-10.8275 -11.70347,-13.8537 -2.75,-3.0263 -6.47269,-7.6773 -8.27264,-10.3357 -1.79996,-2.6584 -7.87496,-9.6264 -13.5,-15.4846 -14.54237,-15.1451 -14.30833,-14.1864 -4.95058,-20.2781 27.99184,-18.22221 41.85991,-44.26537 39.87894,-74.88962 -1.59164,-24.60566 -10.07911,-48.82738 -21.81636,-62.26004 -11.6323,-13.31254 -25.67657,-22.1459 -42.48349,-26.72063 -13.5594,-3.69078 -35.47992,-3.87295 -54.85587,-0.45587 -7.15,1.26095 -13.42341,2.70188 -13.94091,3.20206 -0.58632,0.5667 -0.0587,7.60207 1.40005,18.66851 1.28753,9.7675 2.55086,20.57159 2.80741,24.00909 l 0.46644,6.25 h 3.35323 c 1.84428,0 8.20436,-0.72447 14.13351,-1.60994 15.17095,-2.26564 29.89217,-1.54321 37.28027,1.82952 13.67552,6.24298 20.81236,20.39066 19.79471,39.23997 -0.51621,9.56134 -2.50812,14.29323 -8.5732,20.36604 -7.47209,7.48163 -20.58831,12.2771 -42.63167,15.58672 -5.45058,0.81835 -10.19791,1.95352 -10.54961,2.52258 -0.35169,0.56906 1.04466,11.85216 3.10301,25.07354 l 3.74246,24.03887 10.80715,12.7085 c 5.94393,6.9897 16.43215,19.2995 23.30715,27.3552 13.01281,15.2477 34.63742,41.6013 41.5172,50.5964 2.19054,2.8641 4.59688,5.2266 5.34742,5.25 0.75054,0.023 14.16019,-1.9824 29.79923,-4.4574 z m 105.99894,34.29258 c -0.34138,-1.3602 -1.28058,-8.741 -2.08711,-16.4018 -2.63075,-24.98808 -38.62248,-293.60971 -39.57937,-295.39768 -1.76706,-3.30178 -2.993,-10.87078 -2.13719,-13.19513 0.54494,-1.48004 -0.29077,-10.6625 -2.3479,-25.79797 -1.7567,-12.925 -2.83066,-23.91221 -2.38658,-24.41602 1.25421,-1.42293 150.33628,-21.45639 151.44208,-20.35059 0.2729,0.27289 1.15886,4.71952 1.9688,9.88139 3.30339,21.0528 37.75589,281.91332 41.52165,314.38522 2.23242,19.25 4.6502,39.275 5.37284,44.5 0.72264,5.22498 1.25902,9.56098 1.19194,9.63548 -0.4607,0.5121 -135.98478,18.4797 -143.23022,18.9894 -9.08175,0.6388 -9.11007,0.6335 -9.72894,-1.8323 z m 71.62397,-57.87008 c 13.31081,-1.6926 24.39687,-3.2728 24.63568,-3.5116 0.73605,-0.7361 -2.80834,-31.0203 -8.5333,-72.9109 -4.3145,-31.57005 -19.43182,-144.379 -26.63512,-198.75751 l -1.16007,-8.75751 -5.04698,0.66393 c -2.77583,0.36517 -13.82197,1.85946 -24.54697,3.32065 l -19.5,2.65671 0.24796,5.93686 c 0.53864,12.89691 1.25452,16.43687 3.324,16.43687 2.34841,0 2.52077,1.56891 0.30839,2.80702 -1.46055,0.81737 -1.50497,2.27117 -0.45215,14.79969 3.06709,36.49829 8.36498,78.70843 19.06449,151.89328 3.77923,25.85001 8.03688,55.32501 9.46144,65.50001 2.83475,20.2474 3.32634,23 4.10756,23 0.28798,0 11.41426,-1.3849 24.72507,-3.0775 z m 108.27895,33.92768 c -1.9962,-8.97548 -25.22671,-187.15516 -24.84235,-190.54249 0.26802,-2.36198 -0.19289,-6.29129 -1.05569,-9 -0.84226,-2.64423 -1.82365,-7.2827 -2.18086,-10.3077 -0.3572,-3.025 -4.8805,-35.42499 -10.05176,-71.99999 -9.81561,-69.42329 -12.35834,-91.47671 -10.7344,-93.10065 0.5195,-0.5195 18.23688,-3.20139 39.37196,-5.95974 21.1351,-2.75836 63.6274,-8.33987 94.42733,-12.40336 119.571,-15.77517 144.4484,-18.92126 145.0288,-18.34088 0.3307,0.33067 1.2677,3.45949 2.0823,6.95292 0.8145,3.49344 2.0989,8.17278 2.8541,10.39852 2.1964,6.47296 2.9542,11.80015 13.5073,94.95319 5.5143,43.45 13.2025,103.29999 17.0849,132.99999 3.8825,29.7 7.2545,56.25001 7.4935,59.00001 0.5794,6.6671 4.9117,42.5857 7.2027,59.7158 l 1.8344,13.7158 -2.5439,0.518 c -5.0617,1.0308 -262.75513,34.41218 -270.74983,35.07268 -8.044,0.6647 -8.2161,0.6317 -8.7285,-1.6721 z m 75.37663,-61.93718 c 10.1432,-1.6304 18.5962,-3.1183 18.7844,-3.3064 0.1881,-0.1882 -1.0037,-10.8641 -2.6486,-23.7244 -1.6449,-12.8602 -3.9229,-32.60721 -5.0623,-43.88221 -5.4436,-53.86802 -23.15443,-180.86845 -28.86703,-206.99999 l -0.7652,-3.5 -7.9934,0.15565 c -7.0633,0.13753 -37.1639,4.55279 -40.9543,6.00733 -0.7898,0.30305 -1.4359,1.67971 -1.4359,3.05925 0,1.37954 5.3884,40.1439 11.9741,86.14302 12.5103,87.37892 17.2074,123.25041 21.4745,163.99805 1.4033,13.3998 2.5514,24.6645 2.5514,25.0327 0,1.2847 14.6376,-0.041 32.94233,-2.983 z m 68.0577,-8.0797 c 25.1603,-3.7752 41.1663,-10.7246 53.5076,-23.2316 15.4631,-15.6708 22.7549,-41.03678 21.0142,-73.10171 -1.267,-23.33818 -13.2056,-111.70909 -18.0832,-133.85314 -3.2725,-14.85752 -15.2503,-31.74997 -29.4371,-41.51559 -5.3048,-3.65168 -17.7724,-9.0864 -24.5015,-10.6804 -9.4197,-2.23136 -28.0568,-1.8168 -47.7818,1.06284 -9.4701,1.38254 -18.2178,2.73785 -19.4394,3.01181 -4.2924,0.9626 -4.4504,3.11701 -1.7613,24.01346 2.734,21.24571 4.1378,25.77129 7.7639,25.02948 1.2202,-0.24963 4.4685,-0.91198 7.2185,-1.47189 16.9942,-3.46006 34.7646,-4.09807 43.3263,-1.55554 6.2354,1.85172 11.6333,6.86499 13.1254,12.19009 1.6455,5.87251 18.0484,139.06263 18.0484,146.55122 0,3.96014 -4.76,13.31429 -8.2958,16.30267 -5.1301,4.33587 -21.9656,8.12497 -44.3377,9.9789 -4.4734,0.37071 -8.6191,0.9742 -9.2128,1.3411 -1.2435,0.7685 3.9521,45.6191 5.4532,47.075 2.3174,2.2475 13.2815,1.871 33.3931,-1.1467 z m 163.5538,31.9167 c -0.2109,-0.6875 -2.7066,-19.025 -5.546,-40.75 -2.8394,-21.725 -10.0738,-74.5001 -16.0765,-117.27799 -6.0027,-42.77789 -12.064,-88.67789 -13.4694,-101.99999 -2.8874,-27.36873 -5.8805,-49.27854 -7.9775,-58.39498 -0.7809,-3.39512 -2.1366,-12.39512 -3.0125,-20 -0.876,-7.60487 -2.3905,-19.33954 -3.3655,-26.07704 -0.9751,-6.7375 -1.62,-12.25 -1.4331,-12.25 0.1869,0 4.9494,-0.69799 10.5833,-1.55109 5.6339,-0.8531 41.5184,-5.78316 79.7434,-10.95569 38.225,-5.17253 94.7,-12.81396 125.5,-16.98097 30.8,-4.167 59.2625,-7.92623 63.25,-8.35384 7.0193,-0.75273 7.25,-0.70815 7.25,1.40107 0,1.19819 0.7152,6.17498 1.5892,11.05952 0.8741,4.88454 2.1796,13.15599 2.9012,18.38099 0.7215,5.22501 1.5826,10.17501 1.9134,11.00001 0.3309,0.825 3.9691,26.475 8.085,57 7.6404,56.6641 13.9929,103.46585 29.023,213.8257 4.6685,34.2791 8.4882,62.6824 8.4882,63.1183 0,0.436 -1.6875,1.0338 -3.75,1.3285 -2.0625,0.2948 -25.35,3.7128 -51.75,7.5956 -85.2078,12.532 -222.5594,31.1319 -229.8947,31.1319 -0.9174,0 -1.8406,-0.5625 -2.0515,-1.25 z m 51.4462,-63.6638 c 22.7712,-2.7601 33.6872,-4.1674 35.6171,-4.5919 2.4812,-0.5458 3.4426,-4.6 5.9191,-24.96013 0.8674,-7.13121 2.0057,-13.48223 2.5295,-14.11339 0.5239,-0.63116 3.5358,-1.44351 6.6934,-1.80523 8.1477,-0.93339 42.204,-6.66634 44.3776,-7.47043 1.9371,-0.71658 2.5485,0.94246 -11.4022,-30.93787 l -3.1913,-7.29274 -11.5216,0.75113 c -6.3369,0.41312 -13.0966,0.76986 -15.0216,0.79274 l -3.5,0.0416 0.278,-4.5 c 0.1529,-2.475 1.8827,-14.85 3.8439,-27.49999 1.9613,-12.65 3.3526,-24.575 3.0917,-26.5 -0.5016,-3.70228 -11.8254,-30.71326 -20.9615,-50 -2.9961,-6.325 -7.1646,-15.325 -9.2633,-20 -3.3628,-7.49068 -5.6851,-10.86292 -7.5531,-10.9682 -0.3104,-0.0175 -1.3593,6.1557 -2.3309,13.7182 -0.9716,7.5625 -3.7183,25.675 -6.1038,40.25 -2.3854,14.575 -4.8414,31.675 -5.4577,38 -1.2957,13.29859 -2.5071,21.91246 -8.5785,60.99999 -4.7101,30.3233 -5.5273,36.07915 -8.0091,56.41036 -0.8668,7.10066 -1.9453,14.88716 -2.3967,17.30326 -0.8142,4.3581 -0.7998,4.389 1.8102,3.8979 1.4469,-0.2723 6.4558,-0.9587 11.1308,-1.5253 z m 161.5,-23.16924 c 12.1,-1.67227 22.4108,-3.44597 22.9128,-3.94156 0.95,-0.93769 -2.7485,-9.24856 -26.8353,-60.30243 -7.4802,-15.85486 -13.3674,-29.20392 -13.0827,-29.66459 0.2847,-0.46066 0.1651,-0.9885 -0.2657,-1.17298 -0.4309,-0.18448 -6.9378,-14.7354 -14.4599,-32.3354 -7.5221,-17.6 -21.7034,-50.675 -31.5139,-73.5 -9.8105,-22.825 -20.5189,-47.87116 -23.7963,-55.65813 -5.3693,-12.75697 -6.2559,-14.24816 -8.959,-15.06791 -2.1406,-0.64916 -7.7859,-0.16265 -19.7069,1.69835 -9.1888,1.43448 -16.9657,2.86698 -17.2821,3.18335 -0.3164,0.31636 -1.4608,3.67183 -2.5431,7.45659 -3.3847,11.83555 -3.0076,13.85649 6.9202,37.08862 12.4067,29.03322 77.1471,177.0744 96.4575,220.56838 l 2.5614,5.76925 3.7965,-0.54053 c 2.0881,-0.29729 13.6965,-1.90875 25.7965,-3.58101 z m 100.3942,45.30274 c -1.1269,-0.2182 -1.8616,-4.6475 -3.3175,-20 -1.0285,-10.8458 -2.2502,-19.96887 -2.7148,-20.27339 -0.4645,-0.30453 -0.9064,-3.00453 -0.9819,-6 -0.2228,-8.84239 -16.796,-133.07976 -18.3353,-137.44631 -1.5783,-4.47724 -1.4063,-3.12463 -9.6001,-75.5 -7.4634,-65.92389 -6.8819,-61.62307 -9.1058,-67.34308 -1.3492,-3.47016 -1.7139,-6.16322 -1.2864,-9.5 0.3602,-2.81218 -0.4342,-12.18336 -2.0057,-23.65693 -1.4312,-10.45 -2.7022,-19.88686 -2.8245,-20.97079 -0.2097,-1.85972 2.4551,-2.32532 47.2778,-8.26046 26.125,-3.45932 88.225,-11.685 138,-18.2793 49.775,-6.59429 92.3722,-11.98959 94.6604,-11.98954 l 4.1604,9e-5 2.146,9.25 c 3.2548,14.02933 5.5935,30.39677 10.6097,74.25001 5.3186,46.49746 9.82,81.30971 11.2494,87 0.5527,2.2 1.4957,11.2541 2.0957,20.12023 1.3351,19.73096 4.708,45.95337 10.6604,82.87977 6.8222,42.32171 9.1008,58.4999 11.4435,81.24775 1.1755,11.41373 2.5535,21.42724 3.0622,22.25224 1.7105,2.77378 2.1627,4.08298 1.6032,4.64241 -0.5209,0.5209 -259.7078,35.0961 -277.2701,36.9875 -4.4436,0.4786 -8.7305,0.744 -9.5266,0.5898 z m 127.3338,-69.31059 c 30.972,-4.04391 31.301,-4.11738 31.062,-6.93429 -1.8084,-21.30739 -13.1291,-112.17631 -16.1927,-129.97482 l -1.8073,-10.5 6.475,-18 c 7.8728,-21.88536 27.6205,-81.31642 32.7296,-98.5 2.0441,-6.875 4.7565,-15.98412 6.0276,-20.24248 1.2712,-4.25836 2.0112,-7.9103 1.6445,-8.11541 -0.8234,-0.46058 -54.9133,6.7711 -55.572,7.42984 -0.2611,0.26114 -6.7664,21.3893 -14.456,46.95143 -7.6897,25.56214 -16.6585,53.2571 -19.9308,61.54436 -3.2723,8.28726 -6.6827,17.99101 -7.5787,21.56389 -2.9324,11.69266 -3.0582,10.40895 9.9778,101.86836 3.0182,21.175 5.9982,42.2125 6.6223,46.75 0.9743,7.08328 1.407,8.25 3.0598,8.25 1.0588,0 9.1313,-0.9409 17.9389,-2.09088 z m -50.19,-166.90911 c 1.213,-3.025 5.9723,-16.43203 10.5762,-29.79341 l 8.3708,-24.2934 -3.0949,-6.13089 c -5.6092,-11.11171 -27.0031,-43.1414 -31.0707,-46.51726 -1.0951,-0.9088 -6.8709,-0.61625 -25.3686,1.28495 -27.2347,2.79918 -28.4508,3.00409 -28.4508,4.79364 0,4.27723 64.8713,108.12 66.5152,106.47415 0.1745,-0.17478 1.3098,-2.79278 2.5228,-5.81778 z M 373.90034,590.9879 c -0.36253,-0.58659 -0.44468,-1.281 -0.18255,-1.54313 0.26212,-0.26213 0.74306,0.21781 1.06875,1.06653 0.67618,1.76211 0.0999,2.07206 -0.8862,0.4766 z M 61.441457,584.00427 c 0,-0.73574 -3.35668,-24.53794 -7.45929,-52.89377 -4.10261,-28.35584 -10.63032,-73.60607 -14.50602,-100.55608 -3.8757,-26.95 -7.52294,-52.15 -8.10497,-56 -3.56051,-23.55174 -13.22011,-91.94837 -14.896986,-105.48097 -1.09548,-8.8407 -2.43517,-16.90247 -2.97708,-17.91504 -0.5419,-1.01256 -0.70044,-2.12587 -0.35229,-2.47401 0.34814,-0.34815 0.143,-1.64482 -0.45586,-2.88149 -1.3165,-2.71859 -4.25364,-25.17766 -4.25006,-32.49849 0.002,-3.63661 0.40161,-5.25 1.30106,-5.25 0.71418,0 26.926676,-3.80344 58.249996,-8.45209 81.151903,-12.04364 126.622663,-18.59337 176.951503,-25.48856 24.2,-3.31546 45.39885,-6.2686 47.10855,-6.56251 l 3.10856,-0.5344 2.14144,10.05684 c 1.1778,5.53126 2.14313,11.72721 2.14519,13.76878 0.002,2.04157 0.87002,5.13263 1.9288,6.86904 1.05879,1.7364 2.62755,5.22619 3.48613,7.75509 1.41993,4.1823 1.41679,4.95856 -0.0347,8.58622 -1.5437,3.85807 -1.4578,4.68187 2.63216,25.2449 2.32535,11.69118 4.58522,26.20669 5.02191,32.25669 0.43669,6.05 3.0656,24.95 5.84202,42 5.40814,33.2115 10.83564,69.9166 16.63511,112.5 5.10347,37.47301 14.48483,112.63146 14.48483,116.04485 0,2.45176 -0.46831,2.94416 -3.25,3.41712 -28.67464,4.87542 -262.812103,38.0264 -276.500003,39.14898 -6.55903,0.53793 -8.25,0.40243 -8.25,-0.6611 z M 130.26538,519.9516 c 10.07815,-1.25663 18.95315,-2.76007 19.72223,-3.34098 1.18101,-0.89206 0.6268,-5.87366 -3.56627,-32.05619 -6.46761,-40.38523 -16.1413,-107.0581 -24.9558,-172.00001 -8.15562,-60.08744 -10.2225,-74.90102 -10.49993,-75.25445 -0.10985,-0.13995 -11.185233,1.3218 -24.611943,3.24833 -13.42672,1.92653 -25.02656,3.50353 -25.77744,3.50445 -1.70127,0.002 -1.90015,-1.73199 6.88156,60.00167 5.52727,38.85558 30.27073,203.86613 32.47672,216.5826 l 0.534753,3.08259 5.7361,-0.74162 c 3.15485,-0.40789 13.98186,-1.76976 24.06002,-3.02639 z m 58.51199,-6.95613 c 49.78922,-4.36783 84.09347,-30.73451 92.21401,-70.87685 2.34459,-11.58998 1.57848,-35.28668 -1.48361,-45.89057 -4.23198,-14.65511 -11.5664,-27.73204 -23.01384,-41.0326 l -6.2437,-7.25443 3.07234,-9.49115 c 4.86837,-15.0395 6.43488,-25.22108 5.83052,-37.89545 -0.7062,-14.81002 -4.17996,-26.6033 -10.52816,-35.74276 -2.57591,-3.70852 -5.18083,-7.65778 -5.78872,-8.77614 -3.74469,-6.88931 -27.72449,-23.77004 -38.64001,-27.20088 -6.422,-2.01848 -9.26349,-2.27607 -24.75474,-2.24408 -14.73009,0.0304 -19.8381,0.47093 -32.27187,2.78307 -8.12452,1.5108 -15.82245,3.14635 -17.10651,3.63455 l -2.33465,0.88763 1.31248,9.32931 c 1.4934,10.61538 6.93151,38.69359 7.62918,39.39126 0.254,0.25401 7.84397,-0.48974 16.8666,-1.65276 13.84538,-1.78469 17.62548,-1.94473 24.22906,-1.02583 18.32311,2.5497 26.51479,10.37763 27.46272,26.24326 0.59484,9.95572 -1.44596,16.29702 -7.04752,21.89859 -7.11802,7.11801 -16.1929,10.57378 -38.2343,14.55983 -7.70285,1.39301 -14.30336,2.84375 -14.66779,3.22385 -0.70155,0.73173 2.12813,20.58537 4.37354,30.68569 l 1.33266,5.99458 3.9782,-0.31221 c 2.18801,-0.17172 8.66903,-0.95678 14.40227,-1.74458 24.4362,-3.35779 39.49955,-0.10139 49.63019,10.72908 7.3541,7.86213 9.75277,14.26815 10.23665,27.33854 0.34932,9.43571 0.10399,11.80306 -1.72518,16.64709 -5.82225,15.41853 -20.558,23.11937 -52.71871,27.55055 -9.75654,1.34428 -12.34702,2.02655 -12.34702,3.25191 0,2.10852 6.88268,45.23272 7.46941,46.80046 0.56558,1.51122 3.48116,1.54074 18.8665,0.19104 z m 175.85027,31.31797 c -0.49161,-0.96746 -1.48367,-5.35901 -2.20458,-9.75901 -0.72091,-4.4 -1.71484,-8.26896 -2.20874,-8.59768 -0.49389,-0.32873 -1.10466,-3.02873 -1.35725,-6 -0.32546,-3.82836 -0.16602,-4.9653 0.54725,-3.90232 0.76388,1.1384 1.01021,0.59601 1.02183,-2.25 0.0101,-2.47277 -0.41043,-3.66485 -1.23469,-3.5 -0.78512,0.15702 -1.15602,-0.68937 -0.99729,-2.27586 0.19605,-1.95952 -11.85073,-90.21786 -14.43077,-105.72415 -0.34752,-2.08867 -0.13175,-3.25 0.60384,-3.25 0.77411,0 0.84662,-0.56643 0.22401,-1.75 -0.50632,-0.9625 -1.23358,-4.675 -1.61614,-8.25 -0.38256,-3.575 -2.0649,-14.375 -3.73853,-24 -1.67363,-9.625 -3.41932,-21.775 -3.87932,-27 -0.45999,-5.225 -1.4948,-12.11403 -2.29958,-15.30896 -1.25486,-4.98174 -1.26052,-5.64072 -0.0397,-4.62755 1.16784,0.96921 1.42351,0.72494 1.42351,-1.36001 0,-1.39777 -0.65838,-3.81537 -1.46307,-5.37244 -1.34777,-2.60786 -13.05245,-76.54681 -17.46565,-110.33104 -1.9738,-15.10993 -2.62647,-31.66772 -1.32658,-33.65417 1.22781,-1.8763 285.08489,-40.18719 287.35658,-38.78321 0.33921,0.20964 0.9143,3.43132 1.27797,7.15928 0.36368,3.72796 1.12278,10.15311 1.68688,14.27811 3.28676,24.03435 10.35131,73.82418 13.40836,94.49999 1.9517,13.2 4.01271,29.60221 4.58003,36.44936 0.56731,6.84715 1.48558,12.99653 2.0406,13.66529 0.95929,1.15587 12.3558,89.67344 18.8469,146.38535 1.66822,14.57501 3.67247,29.42501 4.4539,33.00001 3.07007,14.04537 3.5002,16.78277 3.87477,24.65913 0.38467,8.08891 0.36582,8.16389 -2.19135,8.71327 -1.41865,0.30478 -5.72937,1.22084 -9.57937,2.03568 -7.42447,1.57138 -34.06516,5.16964 -123,16.61317 -30.25,3.89237 -72.1,9.49617 -93,12.4529 -20.9,2.95673 -41.6,5.65715 -46,6.00093 -4.4,0.34378 -8.9945,0.83158 -10.20999,1.084 -1.4369,0.29839 -2.52268,-0.15639 -3.10383,-1.30007 z m 67.31382,-57.29496 c 4.4,-0.57118 28.25,-3.69464 53,-6.94103 24.75,-3.24639 51.525,-6.62665 59.5,-7.51169 17.41379,-1.93252 30.46809,-4.04511 38.25,-6.19002 6.83491,-1.88389 6.8372,-1.89438 3.69117,-16.96124 -1.13235,-5.42304 -2.23582,-12.06236 -2.45216,-14.75404 -0.41394,-5.15026 -1.03258,-8.67195 -2.60973,-14.85604 -0.85603,-3.35657 -1.29329,-3.74993 -4.16782,-3.7493 -3.67913,8e-4 -27.64649,3.29774 -61.71146,8.48901 -30.48322,4.64543 -43.82187,6.51029 -46.56566,6.51029 -3.24948,0 -2.07263,6.84754 -12.46023,-72.5 -7.8692,-60.11025 -17.38577,-127.82263 -20.14731,-143.35232 -1.44382,-8.11942 -2.68117,-12.5383 -3.61081,-12.89504 -1.70989,-0.65615 -48.365,5.72761 -49.55336,6.78032 -1.36224,1.20674 12.47652,108.01397 30.47651,235.21704 5.90029,41.6964 6.28876,43.75007 8.27588,43.75129 1.14674,7e-4 5.68498,-0.46605 10.08498,-1.03723 z m 240.06045,17.22641 c -0.29807,-0.93912 -3.25749,-22.17866 -6.57649,-47.19897 -3.31901,-25.02033 -10.05878,-73.8415 -14.97728,-108.4915 -11.19077,-78.83716 -11.56478,-81.66764 -14.00668,-106 -2.598,-25.88788 -4.48267,-39.9667 -7.49647,-56 -2.25453,-11.99401 -8.614,-58.67682 -8.07163,-59.25121 0.13047,-0.13818 28.77417,-4.09712 63.65266,-8.79764 34.87849,-4.70052 86.59044,-11.66998 114.91544,-15.48768 94.66874,-12.759647 106.95617,-14.340597 107.46929,-13.827487 0.28061,0.28062 1.64934,8.57732 3.04161,18.437127 1.39228,9.8598 3.00439,19.9519 3.58247,22.4269 0.57808,2.475 4.37602,29.02499 8.43984,58.99999 4.0639,29.975 9.2141,67.775 11.4449,84 2.2309,16.225 6.9856,51.325 10.566,78 3.5804,26.675 8.5556,63.27964 11.0559,81.34365 2.5003,18.064 4.3539,33.03583 4.119,33.27071 -1.5071,1.50707 -244.38806,35.66807 -273.21901,38.42801 -6.05,0.57915 -11.53946,1.23359 -12.19881,1.45429 -0.65934,0.22071 -1.44268,-0.36708 -1.74074,-1.30619 z m 63.16284,-65.21154 c 13.07719,-1.66159 24.27288,-3.19701 24.8793,-3.41205 1.35636,-0.48096 2.86257,-8.05513 4.98484,-25.06688 0.89199,-7.15 1.95019,-13.35297 2.35157,-13.78439 0.40138,-0.43141 6.5418,-1.65935 13.64539,-2.72874 13.89841,-2.09231 36.14567,-5.8951 38.13515,-6.51855 1.3016,-0.40789 -2.56107,-10.42599 -11.0928,-28.77001 l -4.55873,-9.80169 -3.28401,0.53096 c -1.8062,0.29203 -8.459,0.65279 -14.784,0.80169 l -11.5,0.27073 0.30229,-4.5 c 0.16626,-2.475 1.42776,-11.7 2.80333,-20.5 5.28149,-33.7875 5.22131,-31.99464 1.39573,-41.58058 -3.77033,-9.4475 -13.2291,-30.7303 -23.96097,-53.91367 -6.64517,-14.35512 -9.3392,-19.00575 -11.0097,-19.00575 -0.36264,0 -1.44957,6.1875 -2.41538,13.75 -0.96582,7.5625 -3.71761,25.675 -6.11509,40.25 -2.39748,14.575 -4.65205,29.875 -5.01016,34 -1.10026,12.67391 -6.00358,46.76297 -14.45575,100.5 -0.51905,3.3 -1.2068,9.15 -1.52834,13 -0.32153,3.85 -1.39114,12.0625 -2.3769,18.25 -0.98576,6.1875 -1.43008,11.25 -0.98738,11.25 0.4427,0 11.50443,-1.35948 24.58161,-3.02107 z m 152.14529,-22.06933 c 11.20271,-1.60028 20.54021,-2.9096 20.75,-2.9096 1.25727,0 -0.7152,-4.83842 -10.19276,-25.00264 -25.10319,-53.4089 -29.75915,-63.573 -29.75915,-64.96508 0,-0.81044 -0.39523,-1.93675 -0.87828,-2.5029 -0.99498,-1.16616 -44.47335,-102.0519 -70.85267,-164.40414 -3.07393,-7.26578 -5.07028,-10.68505 -6.66191,-11.41024 -2.22649,-1.01446 -17.62738,0.61841 -32.48866,3.44459 l -5.71486,1.0868 -1.63394,5.62055 c -2.83339,9.74651 -3.24892,14.58947 -1.65683,19.31031 1.97193,5.84719 20.15149,48.11285 48.95812,113.82275 13.14077,29.975 31.51307,71.9518 40.82733,93.28177 l 16.93503,38.78176 6,-0.62216 c 3.3,-0.34219 15.16586,-1.93149 26.36858,-3.53177 z m 97.25653,40.34041 c -3.4769,-17.412 -4.3077,-22.32627 -6.6082,-39.08678 -2.6823,-19.54245 -2.8127,-20.80181 -4.4698,-43.16323 -1.2867,-17.36241 -2.8288,-27.94667 -8.596,-59 -5.4107,-29.13376 -7.4511,-44.48653 -7.4511,-56.06479 0,-4.92929 -0.4171,-9.74374 -0.9268,-10.69878 -0.5098,-0.95504 -1.8915,-9.16143 -3.0705,-18.23643 -1.179,-9.075 -2.535,-18.75 -3.0133,-21.5 -0.4783,-2.75 -3.2093,-21.875 -6.0687,-42.5 -3.03,-21.85504 -5.7353,-38.12579 -6.4844,-38.99999 -1.1233,-1.31085 -3.5263,-19.3925 -4.745,-35.703737 -0.455,-6.08968 -2.503,-5.20519 19.3087,-8.33925 7.975,-1.1459 30.025,-4.32176 49.00003,-7.05746 18.9749,-2.73569 39.225,-5.61424 45,-6.39676 5.775,-0.78252 18.825,-2.58353 29,-4.00225 18.9805,-2.64649 55.2989,-7.50798 108.9062,-14.57795 16.7235,-2.20556 30.7643,-3.65209 31.2019,-3.21452 0.4375,0.43758 1.5046,6.64478 2.3713,13.79377 3.8182,31.49545 6.0809,48.364877 13.6144,101.498147 4.406,31.075 8.8652,63.025 9.9094,71 1.0443,7.975 3.9648,28.45 6.4901,45.5 2.5253,17.05 6.1319,41.8 8.0146,55 1.8828,13.2 4.1049,27.375 4.938,31.5 2.6568,13.15339 7.8469,53.69745 7.2025,56.26458 -0.5321,2.12036 -1.3735,2.56779 -5.8847,3.12929 -29.7261,3.69999 -87.2821,11.45624 -193.7637,26.11162 -40.8915,5.628 -78.54643,10.49452 -81.20193,10.49452 -1.0565,0 -1.8774,-1.76607 -2.673,-5.75 z m 127.41283,-65.45222 c 0.3849,-0.38622 -0.8421,-12.31122 -2.7267,-26.5 l -3.4265,-25.79779 -5.4423,-0.60224 c -7.9818,-0.88323 -14.9184,-4.29601 -20.733,-10.20043 -7.0126,-7.12092 -9.0146,-12.21285 -10.7924,-27.44959 -0.818,-7.01125 -3.6961,-27.59774 -6.3958,-45.74774 -2.6996,-18.15 -5.4365,-36.825 -6.082,-41.5 -1.5055,-10.90414 -1.5626,-26.36573 -0.1162,-31.51538 2.7548,-9.80842 10.3089,-17.29847 21.4518,-21.26988 l 4.7747,-1.70176 -0.6751,-4.50648 c -0.3713,-2.47857 -2.2949,-14.18149 -4.2747,-26.00649 l -3.5997,-21.49998 -3.9481,0.318 c -4.5421,0.36584 -17.4055,4.65521 -26.0952,8.7016 -18.0021,8.38262 -32.359,24.89467 -39.3083,45.20858 -4.71593,13.78575 -6.42503,34.67025 -4.1337,50.5146 0.5364,3.70854 1.8911,15.85854 3.0107,27 5.4193,53.92884 10.1065,78.39197 18.9604,98.95804 12.7175,29.54026 32.7471,46.82931 61.638,53.20424 6.9,1.52253 26.5132,1.79844 27.9141,0.3927 z m 42.4529,-6.2833 c 27.8595,-9.89927 50.9388,-38.98782 52.7176,-66.44387 0.3156,-4.87146 0.015,-12.47106 -0.6883,-17.42889 l -1.2479,-8.79103 -7.1361,0.67043 c -3.9248,0.36874 -16.1361,2.09763 -27.1361,3.84199 -18.5287,2.93825 -19.9761,3.31741 -19.6757,5.15422 1.432,8.75481 -0.8567,19.67769 -5.1418,24.53892 -2.7191,3.08473 -12.7532,9.26988 -17.9325,11.05386 -2.0641,0.71097 -3.75,1.95755 -3.75,2.77284 0,2.12091 5.9744,46.39649 6.4397,47.72449 0.4914,1.40206 17.0039,-0.76652 23.5511,-3.09296 z m 5.5092,-202.93134 c 8.8,-1.35459 19.3187,-3.01519 23.375,-3.69022 l 7.375,-1.22731 -0.5974,-5.58281 c -0.6427,-6.00563 -3.5053,-14.94938 -6.6818,-20.87611 -1.0839,-2.02239 -1.9708,-4.07433 -1.9708,-4.55987 0,-0.48553 -1.2375,-2.35122 -2.75,-4.14597 -6.5458,-7.76732 -9.7994,-11.80152 -10.4994,-13.01828 -0.9517,-1.65448 -17.2725,-12.69043 -23.8669,-16.13853 -2.7494,-1.43762 -8.9105,-3.44193 -13.6913,-4.45402 -4.7808,-1.01209 -11.6174,-2.51057 -15.1924,-3.32996 -6.7518,-1.54749 -16.6742,-1.86447 -21,-0.67087 -4.219,1.16415 -4.0136,5.74679 1.686,37.61081 1.4757,8.25 2.7126,15.07112 2.7486,15.15805 0.036,0.0869 4.3058,0.88785 9.4886,1.77981 11.0753,1.90609 16.8605,4.24888 21.0336,8.51796 2.9415,3.00912 7.0432,9.96205 7.0432,11.93923 0,0.53611 0.4523,2.16429 1.005,3.61819 0.8395,2.20797 1.4573,2.55196 3.75,2.08813 1.5098,-0.30543 9.945,-1.66363 18.745,-3.01823 z m 131.8602,234.66685 c -0.01,-2.6125 -0.9646,-11.275 -2.1288,-19.25 -1.1642,-7.975 -4.1855,-31.825 -6.7142,-53 -2.5286,-21.175 -5.5067,-44.575 -6.6181,-52 -1.1113,-7.425 -2.4519,-18.9 -2.9792,-25.5 -2.4025,-30.07578 -15.3341,-128.90011 -21.9122,-167.45465 -1.1042,-6.472127 -1.9761,-12.617507 -1.9374,-13.656407 0.066,-1.77552 0.1219,-1.76885 0.9297,0.11109 0.7202,1.67602 0.8708,1.47353 0.9297,-1.25 0.044,-2.03744 -0.4151,-3.25 -1.2308,-3.25 -0.9443,0 -1.7721,-4.45625 -3.0187,-16.25 -2.3352,-22.09381 -2.3181,-22.46472 1.0698,-23.13591 11.1068,-2.20045 45.8114,-6.56417 156.25,-19.64669 40.0897,-4.749001 99.332,-12.371241 112.8921,-14.5249006 5.1656,-0.82043 9.6069,-1.27684 9.8695,-1.01425 0.2626,0.26259 0.8641,4.4361596 1.3368,9.2745896 0.4726,4.838441 1.5614,12.622161 2.4195,17.297161 0.858,4.675 2.8942,18.85 4.5248,31.5 1.6305,12.65 4.5508,34.699997 6.4894,48.999987 1.9387,14.29999 3.7217,30.39739 3.9623,35.77199 0.2406,5.37459 2.8967,27.19958 5.9026,48.49999 8.797,62.33773 17.5559,133.12857 19.1754,154.978 0.377,5.0875 0.9811,9.25 1.3423,9.25 0.3612,0 0.7072,0.7875 0.7688,1.75 0.062,0.9625 0.451,6.1375 0.8651,11.5 0.4737,6.13359 0.3942,9.75 -0.2144,9.75 -0.5321,0 -33.5625,4.27761 -73.4008,9.50579 -109.4914,14.3691 -163.1526,21.37486 -176.4334,23.03432 -6.6,0.82469 -15.2809,1.94053 -19.2908,2.47966 -12.8486,1.72745 -12.835,1.73146 -12.849,-3.76977 z m 69.5316,-53.28098 c 10.2345,-1.11704 20.0476,-2.2581 21.8069,-2.53568 l 3.1986,-0.5047 -0.5267,-5.21432 c -0.2897,-2.86788 -2.0578,-16.46432 -3.9292,-30.21432 -3.6722,-26.98213 -4.5818,-34.47591 -12.9289,-106.52132 -3.0282,-26.13673 -7.7462,-64.16172 -10.4845,-84.49999 -2.7383,-20.33826 -5.5167,-41.028657 -6.1742,-45.978657 -0.6576,-4.95 -1.2695,-9.11333 -1.3599,-9.25184 -0.2957,-0.45338 -37.7869,4.71148 -38.3599,5.28454 -0.3071,0.30704 0.018,1.48161 0.7231,2.61016 0.7048,1.12854 1.1003,2.23307 0.8789,2.4545 -0.2215,0.22143 -2.9174,-0.10243 -5.991,-0.7197 -4.0793,-0.81925 -5.4444,-1.49738 -5.0553,-2.51132 0.377,-0.98244 0.028,-1.19519 -1.1927,-0.72681 -2.206,0.84651 -2.1001,1.95261 5.589,58.360447 3.2613,23.92499 8.8791,68.69999 12.4841,99.49999 12.9897,110.9813 14.246,120.76746 15.6151,121.63563 1.9297,1.22366 5.1424,1.07787 25.7066,-1.16661 z m 128.1082,-16.57234 c 16.225,-2.00136 29.8977,-4.00456 30.3838,-4.45154 2.4097,-2.21594 -15.7151,-23.08626 -68.8168,-79.24069 -16.5368,-17.48756 -30.2014,-32.39263 -30.3657,-33.12238 -0.1644,-0.72975 2.4722,-7.79675 5.859,-15.70445 3.3868,-7.90769 12.8154,-30.57762 20.9525,-50.37762 18.9645,-46.14639 32.5123,-77.017917 35.2428,-80.307977 0.6362,-0.76657 1.2625,-2.11402 1.3917,-2.99435 0.1292,-0.88033 1.8864,-5.58495 3.9049,-10.45472 2.0184,-4.86977 3.4184,-9.1057 3.1109,-9.41319 -0.6597,-0.65968 -23.7972,1.87391 -45.5971,4.99294 l -15.4341,2.20823 -3.8021,6.98455 c -6.9135,12.70001 -16.4332,35.508107 -30.6873,73.522717 l -14.0754,37.53819 2.9785,24.4618 c 1.6381,13.454 4.3178,31.21181 5.9547,39.46181 1.6369,8.25 3.4401,18.3342 4.007,22.40932 0.9935,7.14201 1.2946,7.7373 8.3473,16.5 23.9012,29.69665 52.4388,61.58461 55.1354,61.60845 1.1055,0.01 15.285,-1.61972 31.51,-3.62109 z"
         id="path4153" />
      <path
         style="fill:#00df4d;fill-opacity:1;stroke-width:2.55149"
         d="m 673.42561,501.62479 c -1.23497,-3.50245 -29.65862,-209.8412 -36.76446,-266.88809 -2.88419,-23.15474 -7.41822,-56.45163 -10.07562,-73.99309 -2.6574,-17.54147 -4.64969,-32.04867 -4.42731,-32.23823 1.06593,-0.90862 271.70328,-36.691327 277.37074,-36.672971 6.29589,0.02039 6.65267,0.914664 10.90081,27.324331 2.41552,15.01678 13.54722,95.10154 24.73712,177.96613 11.18987,82.86458 20.9493,154.25383 21.68763,158.64274 1.12951,6.71436 0.42296,8.22467 -4.45543,9.52365 -6.13449,1.63349 -179.45998,26.32052 -241.39833,34.38278 -25.8963,3.37082 -36.87398,3.94133 -37.57515,1.95275 z m 64.75521,-61.7113 c 10.264,-0.96225 20.19371,-3.28139 22.06602,-5.1537 1.87231,-1.87233 4.21025,-10.34923 5.19543,-18.83759 1.21128,-10.43647 3.15403,-16.13399 6.00033,-17.59722 2.315,-1.19009 13.77709,-3.6204 25.47131,-5.4007 11.76219,-1.79064 21.80085,-4.64057 22.46776,-6.37851 0.66306,-1.7279 -2.35928,-11.11425 -6.71631,-20.85855 l -7.92187,-17.71691 -15.18128,1.09811 -15.18128,1.09811 1.2447,-7.32307 c 0.68459,-4.02769 2.40572,-14.13592 3.82474,-22.46272 4.2951,-25.20361 3.28414,-30.46058 -12.9119,-67.14198 -15.13515,-34.27863 -21.56777,-46.08 -23.86491,-43.78286 -1.25298,1.25298 -31.48919,210.74325 -32.18911,223.02095 -0.64048,11.23488 -0.32799,11.95335 4.56945,10.50584 2.45581,-0.72584 12.86292,-2.10699 23.12692,-3.0692 z M 905.1396,415.98198 c 2.4558,-0.0495 4.4651,-1.21196 4.4651,-2.58351 0,-1.37153 -7.09494,-17.73293 -15.76655,-36.35867 -8.67161,-18.62572 -34.86545,-78.06945 -58.20854,-132.09716 l -42.442,-98.2322 -19.80081,0.3166 c -10.89044,0.17414 -20.99369,1.5095 -22.45166,2.96747 -1.45798,1.45797 -3.18389,7.63043 -3.83537,13.71656 -1.27836,11.94253 -2.96693,7.75672 75.56525,187.31903 l 31.33305,71.64238 23.33822,-3.30034 c 12.83601,-1.81521 25.3475,-3.34077 27.80331,-3.39016 z"
         id="path4819" />
      <path
         style="fill:#9035e0;fill-opacity:1;stroke-width:2.55149"
         d="m 1236.1949,833.32716 c 0,-0.68196 -5.2043,-38.91059 -11.5651,-84.95251 -6.3608,-46.04192 -15.5025,-114.13906 -20.3149,-151.32697 -4.8123,-37.1879 -10.445,-79.09606 -12.5171,-93.12923 -2.0721,-14.03317 -4.125,-30.10753 -4.5621,-35.7208 l -0.7948,-10.20594 125.0228,-17.13201 c 68.7626,-9.4226 132.4304,-17.45978 141.4842,-17.8604 l 16.4614,-0.72839 5.7724,38.27228 c 4.5387,30.09281 42.3915,307.36951 44.9199,329.04477 0.6791,5.82144 -8.8005,7.44475 -171.6413,29.39238 -52.6244,7.09269 -99.4123,13.50126 -103.9731,14.24129 -4.5608,0.74001 -8.2923,0.78749 -8.2923,0.10563 z m 71.8132,-64.49561 c 17.4262,-1.82141 18.1871,-2.7848 21.1282,-26.74907 2.0078,-16.36028 0.02,-15.17424 33.995,-20.28189 11.5774,-1.74047 21.0498,-4.00039 21.0498,-5.02203 0,-1.02164 -3.3498,-9.72129 -7.444,-19.33256 l -7.4439,-17.47503 -15.5194,-0.75962 c -8.5357,-0.41778 -15.5195,-1.24416 -15.5195,-1.83636 0,-0.59223 1.7861,-13.09899 3.9691,-27.79283 l 3.969,-26.71608 -6.9261,-17.3743 c -12.3111,-30.88281 -28.7119,-64.57678 -31.4332,-64.57678 -1.458,0 -3.2076,2.58338 -3.888,5.74084 -1.5222,7.06365 -10.7979,70.2483 -14.1398,96.31859 -1.3491,10.52488 -5.9088,42.6736 -10.1326,71.4416 -4.2237,28.76801 -7.6969,53.88741 -7.7183,55.82093 -0.03,2.68434 2.4124,3.1235 10.3291,1.85755 5.7024,-0.91182 17.2784,-2.38018 25.7246,-3.26296 z m 142.5116,-21.22913 c 9.1216,-1.39151 17.4458,-2.53868 18.4983,-2.54929 4.4113,-0.0444 0.859,-10.0946 -18.2911,-51.75036 -15.0186,-32.66865 -80.0681,-182.06996 -93.8452,-215.53705 -2.576,-6.25757 -40.0155,-2.1173 -44.4764,4.91846 -7.0738,11.15671 -2.6994,23.99337 46.5862,136.70614 26.8419,61.3857 50.9363,116.54533 53.5431,122.57694 4.4573,10.31318 5.236,10.88311 13.0701,9.56588 4.5817,-0.7704 15.7934,-2.53922 24.915,-3.93072 z"
         id="path4895" />
    </g>
  </g>
</svg>
